<svg xmlns="http://www.w3.org/2000/svg" viewBox="0 0 145 35">
	<title>Logo Kerjoo</title>
	<circle fill="#4DB13D" opacity=".9" cx="7.7" cy="17.5" r="6.7"/>
	<path fill="#4DB13D" opacity=".9" d="M28.8,29.5c-0.8,2.7-3.2,4.7-6.1,4.7h0c-3.5,0-6.4-2.9-6.4-6.4V17.7l0,0c0-1.2,0.3-2.5,1.1-3.6l0,0c0.9-1.4,2.3-2.3,3.8-2.6l0.1,0l0.1,0c0,0,0.1,0,0.1,0l0,0c0.4-0.1,0.7-0.1,1.1-0.1c1.3,0,2.5,0.3,3.7,1.1l14.9,10.1c2.9,2,3.7,5.9,1.7,8.8v0c-2,2.9-5.9,3.7-8.8,1.7L28.8,29.5z"/>
	<path fill="#4DB13D" opacity=".9" d="M28.8,5.5c-0.8-2.7-3.2-4.7-6.1-4.7l0,0c-3.5,0-6.4,2.9-6.4,6.4v10.1l0,0c0,1.2,0.3,2.5,1.1,3.6v0c0.9,1.4,2.3,2.3,3.8,2.6l0.1,0l0.1,0c0,0,0.1,0,0.1,0l0,0c0.4,0.1,0.7,0.1,1.1,0.1c1.3,0,2.5-0.3,3.7-1.1l14.9-10.1c2.9-2,3.7-5.9,1.7-8.8v0C40.9,0.8,37,0,34.1,2L28.8,5.5z"/>
	<path fill="#0088BF" opacity=".6" d="M22.7,0.8L22.7,0.8c3.5,0,6.4,2.9,6.4,6.4v20.6c0,3.5-2.9,6.4-6.4,6.4h0c-3.5,0-6.4-2.9-6.4-6.4V7.2C16.3,3.7,19.2,0.8,22.7,0.8z"/>
	<path fill="#fff" opacity=".075" d="M29.1,14.3v6.4l-2.8,1.9c-1.1,0.8-2.4,1.1-3.7,1.1c-0.4,0-0.7,0-1.1-0.1l0,0c0,0-0.1,0-0.1,0l-0.1,0l-0.1,0c-1.5-0.4-2.9-1.3-3.8-2.6v0c-0.7-1-1.1-2.2-1.1-3.4c0-1.2,0.4-2.3,1.1-3.4l0,0c0.9-1.4,2.3-2.3,3.8-2.6l0.1,0l0.1,0c0,0,0.1,0,0.1,0l0,0c0.4-0.1,0.7-0.1,1.1-0.1c1.3,0,2.5,0.3,3.7,1.1L29.1,14.3z"/>
	<path fill="#000" d="M62.5,16l6.8-7h-4.7l-7.1,7.5V8.8h-3.9v17.4h3.9v-4.9l2.4-2.5l5.1,7.4h4.5L62.5,16L62.5,16z M143.3,21c-0.5,1-1.1,2.1-2,2.8c-0.8,0.7-1.7,1.4-2.9,2c-1.1,0.5-2.4,0.7-3.6,0.7c-1.3,0-2.5-0.2-3.6-0.7c-1.1-0.4-2.1-1.1-2.9-2c-0.8-0.8-1.4-1.7-1.9-2.8s-0.7-2.3-0.7-3.4c0-1.1,0.2-2.4,0.7-3.5c0.4-1.1,1.1-2.1,2-2.9c0.8-0.8,1.7-1.4,2.9-2c1.1-0.5,2.4-0.7,3.6-0.7c1.3,0,2.6,0.2,3.6,0.7c1.1,0.5,2.1,1.1,2.9,2c0.8,0.8,1.4,1.7,1.9,2.8c0.4,1,0.7,2.3,0.7,3.5C144,18.8,143.8,20,143.3,21L143.3,21z M139.7,15.5c-0.2-0.6-0.6-1.2-1-1.7c-0.4-0.5-1-0.9-1.6-1.2c-0.6-0.3-1.3-0.4-2.1-0.4c-0.7,0-1.4,0.1-2.1,0.4c-0.6,0.3-1.1,0.7-1.6,1.1c-0.4,0.5-0.8,1-1,1.7c-0.2,0.6-0.3,1.3-0.3,2.2c0,0.7,0.1,1.4,0.4,2.2c0.2,0.7,0.6,1.2,1,1.7c0.4,0.5,1,0.9,1.6,1.1c0.6,0.3,1.3,0.4,2.1,0.4c0.8,0,1.5-0.1,2.2-0.4c0.6-0.3,1.1-0.7,1.6-1.1c0.4-0.5,0.8-1,1-1.7c0.2-0.6,0.3-1.3,0.3-2.2C140.1,16.9,139.9,16.2,139.7,15.5L139.7,15.5z M123.7,21c-0.5,1-1.1,2.1-2,2.8c-0.8,0.7-1.7,1.4-2.9,2c-1.1,0.5-2.4,0.7-3.6,0.7c-1.3,0-2.5-0.2-3.6-0.7c-1.1-0.4-2.1-1.1-2.9-2C108,23,107.4,22,107,21c-0.4-1-0.7-2.3-0.7-3.4c0-1.1,0.2-2.4,0.7-3.5c0.4-1.1,1.1-2.1,2-2.9c0.8-0.8,1.7-1.4,2.9-2c1.1-0.5,2.4-0.7,3.6-0.7c1.3,0,2.6,0.2,3.6,0.7c1.1,0.5,2.1,1.1,2.9,2c0.8,0.8,1.4,1.7,1.9,2.8c0.4,1,0.7,2.3,0.7,3.5C124.4,18.8,124.1,20,123.7,21L123.7,21z M120,15.5c-0.2-0.6-0.6-1.2-1-1.7c-0.4-0.5-1-0.9-1.6-1.2c-0.6-0.3-1.3-0.4-2.1-0.4c-0.7,0-1.4,0.1-2.1,0.4c-0.6,0.3-1.1,0.7-1.6,1.1c-0.4,0.5-0.8,1-1,1.7c-0.2,0.6-0.3,1.3-0.3,2.2c0,0.7,0.1,1.4,0.4,2.2c0.2,0.7,0.6,1.2,1,1.7c0.4,0.5,1,0.9,1.6,1.1c0.6,0.3,1.3,0.4,2.1,0.4c0.8,0,1.5-0.1,2.2-0.4c0.6-0.3,1.1-0.7,1.6-1.1c0.4-0.5,0.8-1,1-1.7c0.2-0.6,0.3-1.3,0.3-2.2C120.4,16.9,120.3,16.2,120,15.5L120,15.5z M99.8,9.1v12c0,0.6-0.2,1-0.5,1.2c-0.3,0.2-0.8,0.3-1.3,0.3c-0.3,0-0.7,0-1.1-0.1V26c0.3,0,0.6,0.1,0.9,0.1c0.3,0,0.6,0,1,0c1.6,0,2.9-0.3,3.7-0.9c0.8-0.6,1.2-1.6,1.2-3V9.1H99.8L99.8,9.1z M91.7,26.1h-3.9V9.1h3.9v3.8c0.5-1.3,1.3-2.4,2.3-3.1c1-0.8,2.3-1.1,3.7-1v4.1l-0.2,0c-0.8,0-1.6,0.1-2.4,0.4c-0.7,0.3-1.3,0.7-1.9,1.2c-0.5,0.5-0.9,1.2-1.2,2.2c-0.3,0.8-0.4,1.9-0.4,3v6.5H91.7L91.7,26.1z M74.6,22.2c0.9,0.7,2,1.1,3.2,1.1c0.9,0,1.9-0.2,2.5-0.5c0.7-0.3,1.4-0.8,2.1-1.5l2.3,2.1c-0.6,0.9-1.6,1.6-2.8,2.3c-1.1,0.6-2.5,0.8-4,0.8c-1.2,0-2.4-0.2-3.4-0.6c-1-0.4-2-1-2.8-1.9c-0.8-0.8-1.4-1.7-1.9-2.8c-0.4-1.1-0.7-2.3-0.7-3.6c0-1.2,0.2-2.4,0.6-3.5c0.4-1,1-2.1,1.7-2.8c0.7-0.8,1.6-1.4,2.7-2c1-0.5,2.2-0.7,3.4-0.7c1.3,0,2.6,0.2,3.6,0.7c1,0.5,1.9,1.1,2.6,2c0.7,0.8,1.2,1.9,1.5,3c0.3,1.1,0.5,2.3,0.5,3.5c0,0.2,0,0.3,0,0.5s0,0.3,0,0.5l-12.8,0C73.1,20.4,73.6,21.4,74.6,22.2L74.6,22.2z M81.6,16.4c-0.1-0.6-0.2-1.2-0.4-1.7c-0.2-0.5-0.5-1-0.8-1.4c-0.4-0.4-0.8-0.7-1.3-0.9c-0.5-0.2-1.1-0.3-1.7-0.3c-1.2,0-2.2,0.4-3,1.2c-0.8,0.8-1.2,2-1.4,3.3l8.7,0V16.4z"/>
</svg>